<svg xmlns="http://www.w3.org/2000/svg" viewBox="0 0 128 128" width="128" height="128">
  <g id="base">
    <rect x="4" y="4" width="120" height="120" rx="4" fill="#3a4a3a" stroke="#2a3a2a" stroke-width="1"/>
    <rect x="4" y="4" width="120" height="2" fill="none" stroke="#4a5a4a" stroke-width="0.5"/>
    <circle cx="24" cy="24" r="8" fill="#4a6a4a"/>
    <circle cx="52" cy="24" r="8" fill="#4a6a4a"/>
    <circle cx="80" cy="24" r="8" fill="#4a6a4a"/>
    <circle cx="108" cy="24" r="8" fill="#4a6a4a"/>
    <circle cx="24" cy="52" r="8" fill="#4a6a4a"/>
    <circle cx="52" cy="52" r="8" fill="#4a6a4a"/>
    <circle cx="80" cy="52" r="8" fill="#4a6a4a"/>
    <circle cx="108" cy="52" r="8" fill="#4a6a4a"/>
    <circle cx="24" cy="80" r="8" fill="#4a6a4a"/>
    <circle cx="52" cy="80" r="8" fill="#4a6a4a"/>
    <circle cx="80" cy="80" r="8" fill="#4a6a4a"/>
    <circle cx="108" cy="80" r="8" fill="#4a6a4a"/>
    <circle cx="24" cy="108" r="8" fill="#4a6a4a"/>
    <circle cx="52" cy="108" r="8" fill="#4a6a4a"/>
    <circle cx="80" cy="108" r="8" fill="#4a6a4a"/>
    <circle cx="108" cy="108" r="8" fill="#4a6a4a"/>
    <rect x="0" y="58" width="4" height="12" rx="1" fill="#ffcc00" stroke="#cc9900" stroke-width="0.5"/>
    <rect x="124" y="58" width="4" height="12" rx="1" fill="#ffcc00" stroke="#cc9900" stroke-width="0.5"/>
    <circle cx="10" cy="10" r="2" fill="#4a5a4a"/>
    <circle cx="118" cy="10" r="2" fill="#4a5a4a"/>
    <circle cx="10" cy="118" r="2" fill="#4a5a4a"/>
    <circle cx="118" cy="118" r="2" fill="#4a5a4a"/>
  </g>
  <g id="owner_color">
    <rect x="10" y="120" width="14" height="3" fill="white"/>
  </g>
  <g id="level_color">
    <rect x="108" y="6" width="14" height="6" rx="1" fill="white"/>
  </g>
</svg>
