<svg xmlns="http://www.w3.org/2000/svg" viewBox="0 0 128 128" width="128" height="128">
  <g id="base">
    <rect x="4" y="4" width="120" height="120" rx="4" fill="url(#bodyGrad)" stroke="#3e3e3e" stroke-width="1"/>
    <rect x="4" y="4" width="120" height="2" fill="none" stroke="#6a6a6a" stroke-width="0.5"/>
    <rect x="10" y="10" width="24" height="24" rx="2" fill="#4e4e4e"/>
    <rect x="10" y="38" width="24" height="24" rx="2" fill="#4e4e4e"/>
    <rect x="10" y="66" width="24" height="24" rx="2" fill="#4e4e4e"/>
    <rect x="10" y="94" width="24" height="24" rx="2" fill="#4e4e4e"/>
    <rect x="38" y="10" width="52" height="52" rx="2" fill="#4e4e4e" stroke="#3e3e3e" stroke-width="1"/>
    <rect x="42" y="14" width="10" height="10" rx="1" fill="#505050"/>
    <rect x="56" y="14" width="10" height="10" rx="1" fill="#505050"/>
    <rect x="70" y="14" width="10" height="10" rx="1" fill="#505050"/>
    <rect x="42" y="28" width="10" height="10" rx="1" fill="#505050"/>
    <rect x="56" y="28" width="10" height="10" rx="1" fill="#505050"/>
    <rect x="70" y="28" width="10" height="10" rx="1" fill="#505050"/>
    <rect x="42" y="42" width="10" height="10" rx="1" fill="#505050"/>
    <rect x="56" y="42" width="10" height="10" rx="1" fill="#505050"/>
    <rect x="70" y="42" width="10" height="10" rx="1" fill="#505050"/>
    <rect x="38" y="66" width="52" height="52" rx="2" fill="#4e4e4e" stroke="#3e3e3e" stroke-width="1"/>
    <rect x="42" y="70" width="10" height="10" rx="1" fill="#505050"/>
    <rect x="56" y="70" width="10" height="10" rx="1" fill="#505050"/>
    <rect x="70" y="70" width="10" height="10" rx="1" fill="#505050"/>
    <rect x="42" y="84" width="10" height="10" rx="1" fill="#505050"/>
    <rect x="56" y="84" width="10" height="10" rx="1" fill="#505050"/>
    <rect x="70" y="84" width="10" height="10" rx="1" fill="#505050"/>
    <rect x="42" y="98" width="10" height="10" rx="1" fill="#505050"/>
    <rect x="56" y="98" width="10" height="10" rx="1" fill="#505050"/>
    <rect x="70" y="98" width="10" height="10" rx="1" fill="#505050"/>
    <rect x="94" y="10" width="24" height="24" rx="2" fill="#4e4e4e"/>
    <rect x="94" y="38" width="24" height="24" rx="2" fill="#4e4e4e"/>
    <rect x="94" y="66" width="24" height="24" rx="2" fill="#4e4e4e"/>
    <rect x="94" y="94" width="24" height="24" rx="2" fill="#4e4e4e"/>
    <circle cx="10" cy="10" r="2" fill="#6e6e6e"/>
    <circle cx="118" cy="10" r="2" fill="#6e6e6e"/>
    <circle cx="10" cy="118" r="2" fill="#6e6e6e"/>
    <circle cx="118" cy="118" r="2" fill="#6e6e6e"/>
  </g>
  <g id="owner_color">
    <rect x="10" y="120" width="14" height="3" fill="white"/>
  </g>
  <g id="level_color">
    <rect x="108" y="6" width="14" height="6" rx="1" fill="white"/>
  </g>
</svg>
