<svg xmlns="http://www.w3.org/2000/svg" viewBox="0 0 64 64" width="64" height="64">
  <g id="base">
    <rect x="2" y="2" width="60" height="60" rx="2" fill="#5a5a5a" stroke="#4a4a4a" stroke-width="1"/>
    <rect x="6" y="6" width="14" height="12" rx="1" fill="#666666"/>
    <rect x="22" y="6" width="14" height="12" rx="1" fill="#555555"/>
    <rect x="38" y="6" width="20" height="12" rx="1" fill="#666666"/>
    <rect x="6" y="20" width="14" height="12" rx="1" fill="#555555"/>
    <rect x="22" y="20" width="14" height="12" rx="1" fill="#666666"/>
    <rect x="38" y="20" width="20" height="12" rx="1" fill="#555555"/>
    <rect x="6" y="34" width="14" height="12" rx="1" fill="#666666"/>
    <rect x="22" y="34" width="14" height="12" rx="1" fill="#555555"/>
    <rect x="38" y="34" width="20" height="12" rx="1" fill="#666666"/>
    <rect x="6" y="48" width="14" height="12" rx="1" fill="#555555"/>
    <rect x="22" y="48" width="14" height="12" rx="1" fill="#666666"/>
    <rect x="38" y="48" width="20" height="12" rx="1" fill="#555555"/>
  </g>
  <g id="owner_color">
    <rect x="6" y="52" width="10" height="3" fill="white"/>
  </g>
  <g id="level_color">
    <rect x="48" y="6" width="10" height="6" rx="1" fill="white"/>
  </g>
</svg>
