<svg xmlns="http://www.w3.org/2000/svg" viewBox="0 0 128 128" width="128" height="128">
  <g id="base">
    <rect x="4" y="4" width="120" height="120" rx="4" fill="url(#bodyGrad)" stroke="#3e3e3e" stroke-width="1"/>
    <rect x="4" y="4" width="120" height="2" fill="none" stroke="#6a6a6a" stroke-width="0.5"/>
    <rect x="34" y="34" width="60" height="60" rx="2" fill="#2a2a2a" stroke="#4a4a4a" stroke-width="2"/>
    <rect x="40" y="40" width="48" height="48" rx="1" fill="#1a1a1a"/>
    <rect x="10" y="10" width="18" height="18" rx="2" fill="#4e4e4e"/>
    <rect x="100" y="10" width="18" height="18" rx="2" fill="#4e4e4e"/>
    <rect x="10" y="100" width="18" height="18" rx="2" fill="#4e4e4e"/>
    <rect x="100" y="100" width="18" height="18" rx="2" fill="#4e4e4e"/>
    <line x1="19" y1="28" x2="19" y2="34" stroke="#5a5a5a" stroke-width="3"/>
    <line x1="109" y1="28" x2="109" y2="34" stroke="#5a5a5a" stroke-width="3"/>
    <line x1="19" y1="100" x2="19" y2="94" stroke="#5a5a5a" stroke-width="3"/>
    <line x1="109" y1="100" x2="109" y2="94" stroke="#5a5a5a" stroke-width="3"/>
    <rect x="0" y="58" width="4" height="12" rx="1" fill="#ffcc00" stroke="#cc9900" stroke-width="0.5"/>
    <rect x="124" y="58" width="4" height="12" rx="1" fill="#ffcc00" stroke="#cc9900" stroke-width="0.5"/>
    <circle cx="10" cy="10" r="2" fill="#6e6e6e"/>
    <circle cx="118" cy="10" r="2" fill="#6e6e6e"/>
    <circle cx="10" cy="118" r="2" fill="#6e6e6e"/>
    <circle cx="118" cy="118" r="2" fill="#6e6e6e"/>
  </g>
  <g id="owner_color">
    <rect x="10" y="120" width="14" height="3" fill="white"/>
  </g>
  <g id="level_color">
    <rect x="108" y="6" width="14" height="6" rx="1" fill="white"/>
  </g>
</svg>
