<svg xmlns="http://www.w3.org/2000/svg" viewBox="0 0 64 64" width="64" height="64">
  <g id="base">
    <rect x="2" y="2" width="60" height="60" rx="3" fill="#4a5a3a" stroke="#3a4a2a" stroke-width="1"/>
    <rect x="2" y="2" width="60" height="2" fill="none" stroke="#5a6a4a" stroke-width="0.5"/>
    <line x1="2" y1="14" x2="62" y2="14" stroke="#3a4a2a" stroke-width="1"/>
    <line x1="2" y1="24" x2="62" y2="24" stroke="#3a4a2a" stroke-width="1"/>
    <line x1="2" y1="34" x2="62" y2="34" stroke="#3a4a2a" stroke-width="1"/>
    <line x1="2" y1="44" x2="62" y2="44" stroke="#3a4a2a" stroke-width="1"/>
    <line x1="2" y1="54" x2="62" y2="54" stroke="#3a4a2a" stroke-width="1"/>
    <circle cx="10" cy="19" r="3" fill="#5a8a3a"/>
    <circle cx="22" cy="19" r="3" fill="#5a8a3a"/>
    <circle cx="34" cy="19" r="3" fill="#5a8a3a"/>
    <circle cx="46" cy="19" r="3" fill="#5a8a3a"/>
    <circle cx="10" cy="39" r="3" fill="#5a8a3a"/>
    <circle cx="22" cy="39" r="3" fill="#5a8a3a"/>
    <circle cx="34" cy="39" r="3" fill="#5a8a3a"/>
    <circle cx="46" cy="39" r="3" fill="#5a8a3a"/>
  </g>
  <g id="owner_color">
    <rect x="8" y="6" width="10" height="3" fill="white"/>
  </g>
  <g id="level_color">
    <rect x="48" y="6" width="10" height="6" rx="1" fill="white"/>
  </g>
</svg>
