<svg xmlns="http://www.w3.org/2000/svg" viewBox="0 0 128 128" width="128" height="128">
  <g id="base">
    <rect x="4" y="4" width="120" height="120" rx="4" fill="url(#bodyGrad)" stroke="#3e3e3e" stroke-width="1"/>
    <rect x="4" y="4" width="120" height="2" fill="none" stroke="#6a6a6a" stroke-width="0.5"/>
    <rect x="10" y="10" width="20" height="20" rx="2" fill="#4e4e4e"/>
    <rect x="98" y="10" width="20" height="20" rx="2" fill="#4e4e4e"/>
    <rect x="10" y="98" width="20" height="20" rx="2" fill="#4e4e4e"/>
    <rect x="98" y="98" width="20" height="20" rx="2" fill="#4e4e4e"/>
    <rect x="36" y="36" width="56" height="56" rx="3" fill="#4a4a4a"/>
    <rect x="42" y="42" width="44" height="44" rx="2" fill="#bb4400"/>
    <rect x="48" y="48" width="32" height="32" rx="1" fill="#dd6600"/>
    <rect x="54" y="54" width="20" height="20" rx="1" fill="#ff8833"/>
    <rect x="0" y="58" width="4" height="12" rx="1" fill="#ffcc00" stroke="#cc9900" stroke-width="0.5"/>
    <rect x="124" y="58" width="4" height="12" rx="1" fill="#ffcc00" stroke="#cc9900" stroke-width="0.5"/>
    <rect x="58" y="0" width="12" height="4" rx="1" fill="#ffcc00" stroke="#cc9900" stroke-width="0.5"/>
    <rect x="58" y="124" width="12" height="4" rx="1" fill="#ffcc00" stroke="#cc9900" stroke-width="0.5"/>
    <circle cx="20" cy="20" r="3" fill="#6e6e6e"/>
    <circle cx="108" cy="20" r="3" fill="#6e6e6e"/>
    <circle cx="20" cy="108" r="3" fill="#6e6e6e"/>
    <circle cx="108" cy="108" r="3" fill="#6e6e6e"/>
  </g>
  <g id="owner_color">
    <rect x="10" y="120" width="14" height="3" fill="white"/>
  </g>
  <g id="level_color">
    <rect x="108" y="6" width="14" height="6" rx="1" fill="white"/>
  </g>
</svg>
