<svg xmlns="http://www.w3.org/2000/svg" viewBox="0 0 64 64" width="64" height="64">
  <title>Campfire — Bâtiment de cuisson (Phase 0). Cercle de pierres grises avec flammes orangées, cœur jaune vif et étincelles. Permet la fusion basique des minerais. Couleur : #FF6622.</title>
  <desc>Feu de Camp — Bâtiment de cuisson (Phase 0). Cercle de pierres grises avec flammes orangées, cœur jaune vif et étincelles. Permet la fusion basique des minerais. Couleur : #FF6622.</desc>
  <!-- ⚠️ NE PAS MODIFIER — Corps du SVG inchangé ci-dessous -->
  <!-- shadow -->
  <ellipse cx="32" cy="52" rx="18" ry="5" fill="rgba(0,0,0,0.12)"/>
  <!-- fire glow on ground -->
  <ellipse cx="32" cy="40" rx="14" ry="4" fill="rgba(255,100,20,0.08)"/>
  <!-- stones around fire -->
  <ellipse cx="16" cy="36" rx="6" ry="5" fill="#666" stroke="#444" stroke-width="0.6"/>
  <ellipse cx="24" cy="44" rx="5" ry="4" fill="#777" stroke="#444" stroke-width="0.6"/>
  <ellipse cx="40" cy="44" rx="5" ry="4" fill="#666" stroke="#444" stroke-width="0.6"/>
  <ellipse cx="48" cy="36" rx="6" ry="5" fill="#777" stroke="#444" stroke-width="0.6"/>
  <ellipse cx="20" cy="30" rx="4" ry="4" fill="#666" stroke="#444" stroke-width="0.5"/>
  <ellipse cx="44" cy="30" rx="4" ry="4" fill="#777" stroke="#444" stroke-width="0.5"/>
  <!-- inner fire base -->
  <path d="M20 38 Q20 30 24 28 Q28 26 32 28 Q36 26 40 28 Q44 30 44 38Z" fill="#CC4400" opacity="0.8"/>
  <!-- flames -->
  <path d="M32 8 Q36 18 38 26 Q40 32 36 36 Q32 40 28 36 Q24 32 26 26 Q28 18 32 8Z" fill="#FF6622" opacity="0.9"/>
  <path d="M24 14 Q26 22 28 28 Q30 32 26 34 Q22 32 22 28 Q22 22 24 14Z" fill="#FF4400" opacity="0.7"/>
  <path d="M40 16 Q38 24 36 28 Q34 32 38 34 Q42 32 42 28 Q42 22 40 16Z" fill="#FF4400" opacity="0.7"/>
  <!-- bright core -->
  <path d="M28 16 Q30 22 32 26 Q34 22 36 16 Q34 12 32 10 Q30 12 28 16Z" fill="#FFDD44" opacity="0.9"/>
  <!-- sparks -->
  <circle cx="22" cy="14" r="1" fill="#FFAA00" opacity="0.7"/>
  <circle cx="42" cy="12" r="1" fill="#FFAA00" opacity="0.6"/>
  <circle cx="30" cy="6" r="0.8" fill="#FFAA00" opacity="0.5"/>
  <circle cx="36" cy="10" r="0.8" fill="#FF8800" opacity="0.5"/>
  <!-- glow aura -->
  <ellipse cx="32" cy="24" rx="14" ry="12" fill="rgba(255,100,20,0.06)"/>
  <!-- embers -->
  <circle cx="26" cy="34" r="1.5" fill="#FF4400" opacity="0.5"/>
  <circle cx="38" cy="34" r="1" fill="#FF4400" opacity="0.4"/>
  <circle cx="32" cy="36" r="1" fill="#FF6600" opacity="0.4"/>
</svg>
