<svg xmlns="http://www.w3.org/2000/svg" viewBox="0 0 64 64" width="64" height="64">
  <title>Copper Ore — Ressource minière (Phase 1). Roche brune avec inclusions cuivrées brillantes. Se trouve dans les dépôts de cuivre. Couleur : #D68A4C.</title>
  <desc>Minerai de Cuivre — Ressource minière (Phase 1). Roche brune avec inclusions cuivrées brillantes. Se trouve dans les dépôts de cuivre. Couleur : #D68A4C.</desc>
  <!-- ⚠️ NE PAS MODIFIER — Corps du SVG inchangé ci-dessous -->
  <ellipse cx="32" cy="54" rx="18" ry="5" fill="rgba(0,0,0,0.10)"/>
  <path d="M16 20 L24 10 L44 14 L52 26 L46 44 L26 48 L14 34Z" fill="#D68A4C" stroke="#884422" stroke-width="0.8"/>
  <path d="M16 20 L24 10 L28 24 L18 28Z" fill="#B36E32" opacity="0.6"/>
  <path d="M44 14 L52 26 L42 30 L36 20Z" fill="#C08040" opacity="0.5"/>
  <path d="M26 48 L30 36 L38 38 L34 48Z" fill="#A06028" opacity="0.4"/>
  <circle cx="28" cy="22" r="2.5" fill="#E8B070" opacity="0.6"/>
  <circle cx="38" cy="28" r="2" fill="#E8B070" opacity="0.5"/>
  <circle cx="30" cy="36" r="2" fill="#E8B070" opacity="0.5"/>
  <circle cx="42" cy="34" r="1.5" fill="#E8B070" opacity="0.4"/>
  <circle cx="22" cy="34" r="1.5" fill="#E8B070" opacity="0.4"/>
  <line x1="14" y1="34" x2="32" y2="28" stroke="#884422" stroke-width="0.3" opacity="0.4"/>
  <line x1="32" y1="28" x2="52" y2="26" stroke="#884422" stroke-width="0.3" opacity="0.4"/>
  <ellipse cx="28" cy="16" rx="4" ry="2" fill="rgba(255,255,255,0.06)"/>
</svg>
