<svg xmlns="http://www.w3.org/2000/svg" viewBox="0 0 320 320" width="320" height="320">
  <title>Deep Core Drill</title>
  <desc>Foreuse Profonde — Bâtiment minier Phase 5. Vue 3/4 : énorme plateforme de forage (#664433) avec mât central vertical, base industrielle massive et structure en treillis. Coque fermée avec soupapes et conduits de forage. Extraie les minerais sans épuiser le dépôt. Voyant vert actif. 320×320.</desc>
<rect x="8" y="8" width="304" height="304" rx="16" fill="#664433" stroke="#332211" stroke-width="4"/><rect x="8" y="8" width="304" height="16" rx="8" fill="#886655" opacity="0.4"/><rect x="90" y="40" width="124" height="40" rx="8" fill="#554422" stroke="#332211" stroke-width="2"/><rect x="100" y="50" width="104" height="20" rx="4" fill="#332211"/><line x1="100" y1="60" x2="204" y2="60" stroke="#554422" stroke-width="1.5" opacity="0.5"/><rect x="60" y="80" width="184" height="140" rx="8" fill="#554422" stroke="#332211" stroke-width="2"/><rect x="60" y="80" width="184" height="10" rx="4" fill="#776655" opacity="0.4"/><rect x="100" y="100" width="104" height="80" rx="6" fill="#332211"/><line x1="100" y1="120" x2="204" y2="120" stroke="#554422" stroke-width="1.5" opacity="0.4"/><line x1="100" y1="140" x2="204" y2="140" stroke="#554422" stroke-width="1.5" opacity="0.4"/><line x1="100" y1="160" x2="204" y2="160" stroke="#554422" stroke-width="1.5" opacity="0.4"/><rect x="120" y="190" width="64" height="80" rx="6" fill="#332211"/><rect x="120" y="200" width="64" height="60" rx="4" fill="#221100"/><rect x="80" y="270" width="144" height="24" rx="6" fill="#554422" stroke="#332211" stroke-width="2"/><rect x="80" y="270" width="144" height="6" rx="3" fill="#776655" opacity="0.4"/><circle cx="152" cy="215" r="6" fill="#FF6622" opacity="0.4"/><circle cx="152" cy="230" r="4" fill="#FFAA00" opacity="0.3"/></svg>