<svg xmlns="http://www.w3.org/2000/svg" viewBox="0 0 64 64" width="64" height="64">
  <title>Gear — Composant mécanique (Phase 2). Roue dentée métallique avec moyeu central. Utilisé dans les machines et les convoyeurs. Couleur : #887766.</title>
  <desc>Engrenage — Composant mécanique (Phase 2). Roue dentée métallique avec moyeu central. Utilisé dans les machines et les convoyeurs. Couleur : #887766.</desc>
  <!-- ⚠️ NE PAS MODIFIER — Corps du SVG inchangé ci-dessous --><ellipse cx="32" cy="54" rx="16" ry="4" fill="rgba(0,0,0,0.10)"/><circle cx="32" cy="30" r="16" fill="#887766" stroke="#554433" stroke-width="0.8"/><circle cx="32" cy="30" r="12" fill="none" stroke="#776655" stroke-width="0.5"/><circle cx="32" cy="30" r="5" fill="#554433"/><circle cx="32" cy="30" r="2.5" fill="#332211"/><rect x="15" y="28" width="4" height="4" rx="1" fill="#887766" stroke="#554433" stroke-width="0.4"/><rect x="45" y="28" width="4" height="4" rx="1" fill="#887766" stroke="#554433" stroke-width="0.4"/><rect x="30" y="13" width="4" height="4" rx="1" fill="#887766" stroke="#554433" stroke-width="0.4"/><rect x="30" y="43" width="4" height="4" rx="1" fill="#887766" stroke="#554433" stroke-width="0.4"/><rect x="20" y="18" width="4" height="4" rx="1" fill="#887766" stroke="#554433" stroke-width="0.4" transform="rotate(45,22,20)"/><rect x="40" y="18" width="4" height="4" rx="1" fill="#887766" stroke="#554433" stroke-width="0.4" transform="rotate(-45,42,20)"/><rect x="20" y="38" width="4" height="4" rx="1" fill="#887766" stroke="#554433" stroke-width="0.4" transform="rotate(-45,22,40)"/><rect x="40" y="38" width="4" height="4" rx="1" fill="#887766" stroke="#554433" stroke-width="0.4" transform="rotate(45,42,40)"/><ellipse cx="28" cy="24" rx="3" ry="2" fill="rgba(255,255,255,0.04)"/></svg>