<svg xmlns="http://www.w3.org/2000/svg" viewBox="0 0 64 64" width="64" height="64">
  <circle cx="32" cy="32" r="14" fill="#887766" stroke="#333" stroke-width="0.5"/><circle cx="32" cy="32" r="4" fill="#333"/><rect x="41" y="30" width="4" height="8" fill="#887766" stroke="#333" stroke-width="0.3" transform="rotate(0, 43, 32)"/><rect x="37.77817459305202" y="37.77817459305202" width="4" height="8" fill="#887766" stroke="#333" stroke-width="0.3" transform="rotate(45, 39.77817459305202, 39.77817459305202)"/><rect x="30" y="41" width="4" height="8" fill="#887766" stroke="#333" stroke-width="0.3" transform="rotate(90, 32, 43)"/><rect x="22.22182540694798" y="37.77817459305202" width="4" height="8" fill="#887766" stroke="#333" stroke-width="0.3" transform="rotate(135, 24.22182540694798, 39.77817459305202)"/><rect x="19" y="30" width="4" height="8" fill="#887766" stroke="#333" stroke-width="0.3" transform="rotate(180, 21, 32)"/><rect x="22.221825406947975" y="22.22182540694798" width="4" height="8" fill="#887766" stroke="#333" stroke-width="0.3" transform="rotate(225, 24.221825406947975, 24.22182540694798)"/><rect x="29.999999999999996" y="19" width="4" height="8" fill="#887766" stroke="#333" stroke-width="0.3" transform="rotate(270, 31.999999999999996, 21)"/><rect x="37.77817459305202" y="22.221825406947975" width="4" height="8" fill="#887766" stroke="#333" stroke-width="0.3" transform="rotate(315, 39.77817459305202, 24.221825406947975)"/>
</svg>