<svg xmlns="http://www.w3.org/2000/svg" viewBox="0 0 64 64" width="64" height="64">
  <path d="M36 8 Q44 16 36 24 Q28 32 36 40 Q44 48 36 56" fill="none" stroke="#66BB6A" stroke-width="3"/><path d="M28 8 Q20 16 28 24 Q36 32 28 40 Q20 48 28 56" fill="none" stroke="#47824a" stroke-width="3"/><line x1="28" y1="14" x2="36" y2="12" stroke="#333" stroke-width="0.5"/><line x1="36" y1="18" x2="28" y2="16" stroke="#333" stroke-width="0.5"/><line x1="28" y1="20" x2="36" y2="18" stroke="#333" stroke-width="0.5"/><line x1="36" y1="24" x2="28" y2="22" stroke="#333" stroke-width="0.5"/><line x1="28" y1="26" x2="36" y2="24" stroke="#333" stroke-width="0.5"/><line x1="36" y1="30" x2="28" y2="28" stroke="#333" stroke-width="0.5"/><line x1="28" y1="32" x2="36" y2="30" stroke="#333" stroke-width="0.5"/><line x1="36" y1="36" x2="28" y2="34" stroke="#333" stroke-width="0.5"/><line x1="28" y1="38" x2="36" y2="36" stroke="#333" stroke-width="0.5"/><line x1="36" y1="42" x2="28" y2="40" stroke="#333" stroke-width="0.5"/><line x1="28" y1="44" x2="36" y2="42" stroke="#333" stroke-width="0.5"/><line x1="36" y1="48" x2="28" y2="46" stroke="#333" stroke-width="0.5"/><line x1="28" y1="50" x2="36" y2="48" stroke="#333" stroke-width="0.5"/><line x1="36" y1="54" x2="28" y2="52" stroke="#333" stroke-width="0.5"/>
</svg>