<svg xmlns="http://www.w3.org/2000/svg" viewBox="0 0 64 64" width="64" height="64">
  <title>Genome Sequence — Composant ultime (Phase Finale). Double hélice d'ADN verte avec barres de liaison. Synthétisé au bio-lab. Couleur : #66BB6A.</title>
  <desc>Séquence Génome — Composant ultime (Phase Finale). Double hélice d'ADN verte avec barres de liaison. Synthétisé au bio-lab. Couleur : #66BB6A.</desc>
  <!-- ⚠️ NE PAS MODIFIER — Corps du SVG inchangé ci-dessous --><ellipse cx="32" cy="54" rx="16" ry="4" fill="rgba(0,0,0,0.10)"/><path d="M36 6 Q46 14 36 24 Q26 34 36 44 Q46 54 36 58" fill="none" stroke="#66BB6A" stroke-width="3" stroke-linecap="round"/><path d="M28 6 Q18 14 28 24 Q38 34 28 44 Q18 54 28 58" fill="none" stroke="#44AA4A" stroke-width="3" stroke-linecap="round"/><line x1="28" y1="14" x2="36" y2="12" stroke="#338833" stroke-width="0.5"/><line x1="36" y1="18" x2="28" y2="20" stroke="#338833" stroke-width="0.5"/><line x1="28" y1="24" x2="36" y2="26" stroke="#338833" stroke-width="0.5"/><line x1="36" y1="32" x2="28" y2="34" stroke="#338833" stroke-width="0.5"/><line x1="28" y1="38" x2="36" y2="40" stroke="#338833" stroke-width="0.5"/><line x1="36" y1="44" x2="28" y2="46" stroke="#338833" stroke-width="0.5"/><line x1="28" y1="50" x2="36" y2="52" stroke="#338833" stroke-width="0.5"/><ellipse cx="30" cy="14" rx="2" ry="2" fill="rgba(255,255,255,0.06)"/></svg>