<svg xmlns="http://www.w3.org/2000/svg" viewBox="0 0 64 64" width="64" height="64">
  <title>Iron Ore</title>
  <desc>Minerai de Fer — Ressource minière Phase 1. Vue 3/4 : roche brune (#B35F33) irrégulière avec pépites métalliques brillantes incrustées. Forme organique asymétrique rugueuse. 64×64.</desc>
  <ellipse cx="33" cy="50" rx="16" ry="5" fill="rgba(0,0,0,0.12)"/>
  <path d="M16 20 L24 10 L40 12 L50 22 L48 38 L38 48 L22 46 L12 34Z" fill="#8B5E4C" stroke="#4A2F1E" stroke-width="0.8"/>
  <path d="M16 20 L24 10 L28 24 L18 28Z" fill="#5A3A2E" opacity="0.6"/>
  <path d="M40 12 L50 22 L42 32 L34 22Z" fill="#6B4738" opacity="0.5"/>
  <path d="M22 46 L28 36 L36 40 L32 48Z" fill="#4A2F1E" opacity="0.4"/>
  <circle cx="26" cy="18" r="2.5" fill="#C0B0A0" opacity="0.7"/>
  <circle cx="36" cy="28" r="2" fill="#C0B0A0" opacity="0.6"/>
  <circle cx="30" cy="36" r="2.5" fill="#B0A090" opacity="0.6"/>
  <circle cx="42" cy="30" r="1.5" fill="#C0B0A0" opacity="0.5"/>
  <circle cx="22" cy="34" r="1.5" fill="#B0A090" opacity="0.5"/>
  <circle cx="34" cy="40" r="1.5" fill="#B0A090" opacity="0.5"/>
  <circle cx="28" cy="22" r="1" fill="#D0C0B0" opacity="0.4"/>
  <circle cx="40" cy="36" r="1" fill="#D0C0B0" opacity="0.4"/>
  <ellipse cx="30" cy="16" rx="5" ry="2" fill="rgba(255,255,255,0.06)"/>
</svg>
