<svg xmlns="http://www.w3.org/2000/svg" viewBox="0 0 64 64" width="64" height="64">
  <title>Scrap Metal</title>
  <desc>Ferraille — Ressource de base Phase 0. Vue 3/4 : morceau de métal tordu (#887766) aux bords déchiquetés, taches de rouille et facettes. Contraste : vestige ruiné du monde d'avant. 64×64.</desc>
  <ellipse cx="34" cy="50" rx="18" ry="5" fill="rgba(0,0,0,0.10)"/>
  <path d="M12 18 L22 8 L48 14 L52 26 L44 48 L20 50 L10 36Z" fill="#887766" stroke="#554433" stroke-width="0.8"/>
  <path d="M12 18 L18 28 L14 34 L8 28Z" fill="#665544" opacity="0.6"/>
  <path d="M48 14 L44 28 L50 26Z" fill="#665544" opacity="0.5"/>
  <path d="M20 50 L28 40 L32 48Z" fill="#554433" opacity="0.5"/>
  <line x1="22" y1="12" x2="26" y2="22" stroke="#AA9988" stroke-width="0.6" opacity="0.5"/>
  <line x1="36" y1="16" x2="40" y2="30" stroke="#AA9988" stroke-width="0.5" opacity="0.4"/>
  <line x1="18" y1="28" x2="32" y2="38" stroke="#554433" stroke-width="0.5" opacity="0.5"/>
  <circle cx="24" cy="24" r="2" fill="#AA6633" opacity="0.4"/>
  <circle cx="38" cy="34" r="2.5" fill="#AA6633" opacity="0.3"/>
  <circle cx="30" cy="42" r="1.5" fill="#AA6633" opacity="0.3"/>
  <ellipse cx="34" cy="16" rx="8" ry="2" fill="rgba(255,255,255,0.06)"/>
</svg>
