<svg xmlns="http://www.w3.org/2000/svg" viewBox="0 0 64 64" width="64" height="64">
  <title>Stone Brick — Ressource transformée (Phase 0). Assemblage de briques rectangulaires grises avec jointures. Fabriquée à partir de pierre. Couleur : #887766.</title>
  <desc>Brique de Pierre — Ressource transformée (Phase 0). Assemblage de briques rectangulaires grises avec jointures. Fabriquée à partir de pierre. Couleur : #887766.</desc>
  <!-- ⚠️ NE PAS MODIFIER — Corps du SVG inchangé ci-dessous -->
  <!-- shadow -->
  <ellipse cx="32" cy="54" rx="20" ry="4" fill="rgba(0,0,0,0.10)"/>
  <!-- brick 1 (top-left) -->
  <rect x="4" y="6" width="28" height="14" rx="1" fill="#887766" stroke="#665544" stroke-width="0.8"/>
  <!-- brick 2 (top-right) -->
  <rect x="34" y="6" width="26" height="14" rx="1" fill="#887766" stroke="#665544" stroke-width="0.8"/>
  <!-- brick 3 (mid-left, offset) -->
  <rect x="2" y="22" width="20" height="14" rx="1" fill="#887766" stroke="#665544" stroke-width="0.8"/>
  <!-- brick 4 (mid-center) -->
  <rect x="24" y="22" width="20" height="14" rx="1" fill="#887766" stroke="#665544" stroke-width="0.8"/>
  <!-- brick 5 (mid-right) -->
  <rect x="46" y="22" width="16" height="14" rx="1" fill="#887766" stroke="#665544" stroke-width="0.8"/>
  <!-- brick 6 (bottom-left) -->
  <rect x="4" y="38" width="28" height="14" rx="1" fill="#887766" stroke="#665544" stroke-width="0.8"/>
  <!-- brick 7 (bottom-right) -->
  <rect x="34" y="38" width="26" height="14" rx="1" fill="#887766" stroke="#665544" stroke-width="0.8"/>
  <!-- mortar texture -->
  <rect x="4" y="6" width="28" height="14" rx="1" fill="none" stroke="#997766" stroke-width="0.3" opacity="0.4"/>
  <rect x="34" y="6" width="26" height="14" rx="1" fill="none" stroke="#997766" stroke-width="0.3" opacity="0.4"/>
  <rect x="2" y="22" width="20" height="14" rx="1" fill="none" stroke="#997766" stroke-width="0.3" opacity="0.4"/>
  <rect x="24" y="22" width="20" height="14" rx="1" fill="none" stroke="#997766" stroke-width="0.3" opacity="0.4"/>
  <!-- surface grain -->
  <line x1="8" y1="10" x2="26" y2="10" stroke="#776655" stroke-width="0.3" opacity="0.3"/>
  <line x1="38" y1="10" x2="54" y2="10" stroke="#776655" stroke-width="0.3" opacity="0.3"/>
  <line x1="28" y1="26" x2="40" y2="26" stroke="#776655" stroke-width="0.3" opacity="0.3"/>
  <line x1="10" y1="42" x2="26" y2="42" stroke="#776655" stroke-width="0.3" opacity="0.3"/>
</svg>
