<svg xmlns="http://www.w3.org/2000/svg" viewBox="0 0 64 64" width="64" height="64">
  <title>Water — Ressource fluide (Phase 2). Bouteille d'eau bleue avec bouchon, liquide et bulles. Pompée par la pompe à eau. Couleur : #3399DD.</title>
  <desc>Eau — Ressource fluide (Phase 2). Bouteille d'eau bleue avec bouchon, liquide et bulles. Pompée par la pompe à eau. Couleur : #3399DD.</desc>
  <!-- ⚠️ NE PAS MODIFIER — Corps du SVG inchangé ci-dessous -->
  <!-- shadow -->
  <ellipse cx="30" cy="50" rx="14" ry="5" fill="rgba(0,0,0,0.10)"/>
  <!-- bottle shape -->
  <path d="M26 6 Q26 4 30 4 L34 4 Q38 4 38 6 L38 12 Q38 14 40 18 L44 28 Q46 34 44 40 L40 50 Q38 54 32 54 Q26 54 24 50 L20 40 Q18 34 20 28 L24 18 Q26 14 26 12Z" fill="#3399DD" stroke="#1A5588" stroke-width="0.8"/>
  <!-- liquid fill -->
  <path d="M22 32 Q22 24 26 20 L38 20 Q42 24 42 32 L40 46 Q38 50 32 50 Q26 50 24 46Z" fill="#44AAEE" opacity="0.6"/>
  <!-- bubble -->
  <circle cx="30" cy="36" r="3" fill="rgba(255,255,255,0.15)"/>
  <circle cx="36" cy="42" r="2" fill="rgba(255,255,255,0.12)"/>
  <circle cx="28" cy="44" r="1.5" fill="rgba(255,255,255,0.10)"/>
  <!-- cap -->
  <rect x="27" y="2" width="10" height="6" rx="2" fill="#1A5588" stroke="#0F3355" stroke-width="0.5"/>
  <!-- label -->
  <rect x="24" y="24" width="16" height="10" rx="1" fill="rgba(255,255,255,0.08)"/>
  <!-- highlight -->
  <path d="M28 8 Q28 12 26 16 L24 22 Q22 28 22 34" fill="none" stroke="rgba(255,255,255,0.12)" stroke-width="1.5"/>
  <!-- reflection line -->
  <ellipse cx="32" cy="48" rx="8" ry="2" fill="rgba(0,0,0,0.06)"/>
</svg>
