<svg xmlns="http://www.w3.org/2000/svg" viewBox="0 0 64 64" width="64" height="64"><ellipse cx="32" cy="54" rx="16" ry="4" fill="rgba(0,0,0,0.10)"/><rect x="10" y="10" width="44" height="40" rx="3" fill="#226622" stroke="#114411" stroke-width="0.8"/><line x1="14" y1="14" x2="50" y2="14" stroke="#44AA44" stroke-width="0.5" opacity="0.5"/><line x1="14" y1="20" x2="50" y2="20" stroke="#44AA44" stroke-width="0.5" opacity="0.5"/><line x1="14" y1="26" x2="50" y2="26" stroke="#44AA44" stroke-width="0.5" opacity="0.5"/><line x1="14" y1="32" x2="50" y2="32" stroke="#44AA44" stroke-width="0.5" opacity="0.5"/><line x1="14" y1="38" x2="50" y2="38" stroke="#44AA44" stroke-width="0.5" opacity="0.5"/><line x1="14" y1="44" x2="50" y2="44" stroke="#44AA44" stroke-width="0.5" opacity="0.5"/><rect x="14" y="16" width="6" height="6" rx="0.5" fill="#114411" stroke="#44AA44" stroke-width="0.3"/><rect x="24" y="16" width="6" height="6" rx="0.5" fill="#114411" stroke="#44AA44" stroke-width="0.3"/><rect x="34" y="16" width="6" height="6" rx="0.5" fill="#114411" stroke="#44AA44" stroke-width="0.3"/><rect x="44" y="16" width="4" height="4" rx="0.5" fill="#114411" stroke="#44AA44" stroke-width="0.3"/><rect x="14" y="26" width="6" height="6" rx="0.5" fill="#114411" stroke="#44AA44" stroke-width="0.3"/><rect x="24" y="26" width="6" height="6" rx="0.5" fill="#114411" stroke="#44AA44" stroke-width="0.3"/><rect x="34" y="26" width="6" height="6" rx="0.5" fill="#114411" stroke="#44AA44" stroke-width="0.3"/><rect x="44" y="26" width="4" height="4" rx="0.5" fill="#114411" stroke="#44AA44" stroke-width="0.3"/><rect x="20" y="36" width="8" height="8" rx="1" fill="#114411" stroke="#44AA44" stroke-width="0.3"/><rect x="34" y="36" width="8" height="8" rx="1" fill="#114411" stroke="#44AA44" stroke-width="0.3"/><line x1="12" y1="10" x2="52" y2="10" stroke="#FFD700" stroke-width="1.5" opacity="0.5"/><circle cx="17" cy="19" r="1.5" fill="#66DD66"/><circle cx="27" cy="19" r="1.5" fill="#66DD66"/><circle cx="37" cy="19" r="1.5" fill="#66DD66"/><circle cx="17" cy="29" r="1.5" fill="#66DD66"/><circle cx="27" cy="29" r="1.5" fill="#66DD66"/><circle cx="37" cy="29" r="1.5" fill="#66DD66"/><circle cx="24" cy="40" r="1.5" fill="#66DD66"/><circle cx="38" cy="40" r="1.5" fill="#66DD66"/><ellipse cx="16" cy="14" rx="2" ry="3" fill="rgba(255,255,255,0.03)"/></svg>