<svg xmlns="http://www.w3.org/2000/svg" viewBox="0 0 64 64" width="64" height="64">
  <!-- shadow -->
  <ellipse cx="32" cy="50" rx="18" ry="6" fill="rgba(0,0,0,0.10)"/>
  <!-- main blob -->
  <path d="M16 24 Q16 12 28 10 Q36 8 42 14 Q52 18 48 30 Q50 40 40 44 Q34 50 24 48 Q14 46 14 36 Q12 28 16 24Z" fill="#4DB6AC" stroke="#2A7A72" stroke-width="0.8"/>
  <!-- darker inner mass -->
  <path d="M20 26 Q22 18 30 16 Q36 16 40 20 Q46 24 42 32 Q44 38 36 40 Q30 44 24 42 Q18 40 18 34 Z" fill="#3A9E94" opacity="0.6"/>
  <!-- nucleus -->
  <circle cx="30" cy="28" r="6" fill="#5EC8BE" stroke="#2A7A72" stroke-width="0.4"/>
  <circle cx="30" cy="28" r="3" fill="#7AD8CE" opacity="0.7"/>
  <circle cx="30" cy="28" r="1.5" fill="#A3E8E0" opacity="0.5"/>
  <!-- smaller vescicles -->
  <circle cx="40" cy="24" r="3" fill="#5EC8BE" opacity="0.5"/>
  <circle cx="22" cy="36" r="2.5" fill="#5EC8BE" opacity="0.4"/>
  <circle cx="36" cy="38" r="2" fill="#5EC8BE" opacity="0.4"/>
  <circle cx="24" cy="20" r="2" fill="#5EC8BE" opacity="0.3"/>
  <!-- surface texture -->
  <circle cx="18" cy="28" r="1" fill="#7AD8CE" opacity="0.3"/>
  <circle cx="42" cy="34" r="1" fill="#7AD8CE" opacity="0.3"/>
  <circle cx="34" cy="18" r="1" fill="#7AD8CE" opacity="0.2"/>
  <!-- highlight -->
  <ellipse cx="26" cy="18" rx="4" ry="3" fill="rgba(255,255,255,0.06)"/>
</svg>
