<svg xmlns="http://www.w3.org/2000/svg" viewBox="0 0 64 64" width="64" height="64"><ellipse cx="32" cy="54" rx="16" ry="4" fill="rgba(0,0,0,0.10)"/><rect x="10" y="12" width="44" height="38" rx="3" fill="#226622" stroke="#114411" stroke-width="0.8"/><line x1="14" y1="16" x2="50" y2="16" stroke="#44AA44" stroke-width="0.5" opacity="0.5"/><line x1="14" y1="22" x2="50" y2="22" stroke="#44AA44" stroke-width="0.5" opacity="0.5"/><line x1="14" y1="28" x2="50" y2="28" stroke="#44AA44" stroke-width="0.5" opacity="0.5"/><line x1="14" y1="34" x2="50" y2="34" stroke="#44AA44" stroke-width="0.5" opacity="0.5"/><line x1="14" y1="40" x2="50" y2="40" stroke="#44AA44" stroke-width="0.5" opacity="0.5"/><line x1="14" y1="46" x2="50" y2="46" stroke="#44AA44" stroke-width="0.5" opacity="0.5"/><rect x="20" y="18" width="8" height="8" rx="1" fill="#114411" stroke="#44AA44" stroke-width="0.3"/><rect x="32" y="18" width="8" height="8" rx="1" fill="#114411" stroke="#44AA44" stroke-width="0.3"/><rect x="44" y="18" width="4" height="4" rx="0.5" fill="#114411" stroke="#44AA44" stroke-width="0.3"/><rect x="20" y="30" width="8" height="8" rx="1" fill="#114411" stroke="#44AA44" stroke-width="0.3"/><rect x="32" y="30" width="8" height="8" rx="1" fill="#114411" stroke="#44AA44" stroke-width="0.3"/><rect x="44" y="30" width="4" height="4" rx="0.5" fill="#114411" stroke="#44AA44" stroke-width="0.3"/><rect x="26" y="42" width="8" height="6" rx="1" fill="#114411" stroke="#44AA44" stroke-width="0.3"/><rect x="38" y="42" width="8" height="6" rx="1" fill="#114411" stroke="#44AA44" stroke-width="0.3"/><circle cx="24" cy="22" r="1.5" fill="#66DD66"/><circle cx="36" cy="22" r="1.5" fill="#66DD66"/><circle cx="24" cy="34" r="1.5" fill="#66DD66"/><circle cx="36" cy="34" r="1.5" fill="#66DD66"/><circle cx="30" cy="45" r="1.5" fill="#66DD66"/><circle cx="42" cy="45" r="1.5" fill="#66DD66"/><ellipse cx="16" cy="18" rx="2" ry="4" fill="rgba(255,255,255,0.03)"/></svg>