<svg xmlns="http://www.w3.org/2000/svg" viewBox="0 0 64 64" width="64" height="64">
  <!-- shadow -->
  <ellipse cx="33" cy="50" rx="16" ry="5" fill="rgba(0,0,0,0.15)"/>
  <!-- main chunk -->
  <path d="M14 22 L24 10 L44 14 L52 28 L46 44 L28 50 L16 40Z" fill="#3A3A3A" stroke="#222" stroke-width="0.8"/>
  <!-- facet highlights -->
  <path d="M14 22 L24 10 L28 24 L18 30Z" fill="#555" opacity="0.5"/>
  <path d="M44 14 L52 28 L42 32 L36 20Z" fill="#4A4A4A" opacity="0.5"/>
  <path d="M28 50 L34 38 L42 44 L36 50Z" fill="#2A2A2A" opacity="0.5"/>
  <path d="M16 40 L24 34 L28 44 L20 48Z" fill="#4A4A4A" opacity="0.4"/>
  <!-- sharp edges -->
  <line x1="24" y1="10" x2="28" y2="24" stroke="#222" stroke-width="0.5"/>
  <line x1="44" y1="14" x2="36" y2="20" stroke="#222" stroke-width="0.5"/>
  <line x1="52" y1="28" x2="42" y2="32" stroke="#222" stroke-width="0.5"/>
  <!-- subtle shine -->
  <ellipse cx="26" cy="18" rx="4" ry="2" fill="rgba(255,255,255,0.06)"/>
  <ellipse cx="44" cy="24" rx="3" ry="1.5" fill="rgba(255,255,255,0.04)"/>
</svg>
