<svg xmlns="http://www.w3.org/2000/svg" viewBox="0 0 64 64" width="64" height="64">
  <title>Crude Oil</title>
  <desc>Pétrole Brut — Ressource fluide Phase 3. Vue 3/4 : fût métallique noir (#222222) avec étiquette et goutte au bec. Contenant standard, centre coloré. 64×64.</desc>
  <ellipse cx="30" cy="50" rx="14" ry="5" fill="rgba(0,0,0,0.12)"/>
  <path d="M20 10 Q20 8 24 8 L40 8 Q44 8 44 10 L44 48 Q44 50 40 50 L24 50 Q20 50 20 48Z" fill="#222222" stroke="#111" stroke-width="1"/>
  <ellipse cx="32" cy="10" rx="12" ry="3" fill="#333333" stroke="#111" stroke-width="0.6"/>
  <ellipse cx="32" cy="48" rx="12" ry="3" fill="#1A1A1A" stroke="#111" stroke-width="0.6"/>
  <path d="M24 14 L28 12 L36 12 L40 14 L38 44 L26 44Z" fill="rgba(20,60,80,0.15)"/>
  <rect x="22" y="20" width="20" height="18" rx="2" fill="#1A1A1A" stroke="#333" stroke-width="0.5"/>
  <path d="M32 24 Q32 28 32 30 Q32 34 28 34 Q24 34 24 30 Q24 28 28 26Z" fill="#444" opacity="0.6"/>
  <ellipse cx="26" cy="16" rx="3" ry="6" fill="rgba(255,255,255,0.04)"/>
  <ellipse cx="38" cy="16" rx="2" ry="4" fill="rgba(255,255,255,0.03)"/>
  <path d="M34 48 Q34 52 36 54 Q38 52 38 48" fill="#222" stroke="#111" stroke-width="0.3"/>
</svg>
