<svg xmlns="http://www.w3.org/2000/svg" viewBox="0 0 64 64" width="64" height="64">
  <title>Energy</title>
  <desc>Énergie — Ressource électrique Phase 1. Vue 3/4 : éclair bleu vif (#3399DD) avec arcs électriques sur les côtés. Couleur vive pour simuler l'activité. 64×64.</desc>
  <circle cx="32" cy="32" r="24" fill="rgba(50,150,255,0.06)"/>
  <circle cx="32" cy="32" r="18" fill="rgba(50,150,255,0.04)"/>
  <path d="M28 4 L38 4 L34 24 L44 24 L22 56 L28 32 L18 32Z" fill="#3399DD" stroke="#1A5588" stroke-width="0.8"/>
  <path d="M29 8 L36 8 L33 22 L40 22 L25 48 L28 30 L20 30Z" fill="#66BBEE" opacity="0.6"/>
  <path d="M30 10 L34 10 L32 20 L37 20 L26 42 L28 30 L22 30Z" fill="#99DDFF" opacity="0.4"/>
  <circle cx="16" cy="14" r="1" fill="#99DDFF" opacity="0.6"/>
  <circle cx="48" cy="18" r="1.2" fill="#99DDFF" opacity="0.5"/>
  <circle cx="44" cy="8" r="0.8" fill="#99DDFF" opacity="0.4"/>
  <circle cx="14" cy="44" r="1" fill="#99DDFF" opacity="0.5"/>
  <circle cx="46" cy="50" r="0.8" fill="#99DDFF" opacity="0.4"/>
  <path d="M14 20 Q10 16 14 12" fill="none" stroke="#66BBEE" stroke-width="0.8" opacity="0.4"/>
  <path d="M50 22 Q54 18 50 14" fill="none" stroke="#66BBEE" stroke-width="0.8" opacity="0.4"/>
  <path d="M16 48 Q12 44 14 40" fill="none" stroke="#66BBEE" stroke-width="0.6" opacity="0.3"/>
  <path d="M30 6 L36 6 L33 20 L38 20 L27 40 L29 28 L22 28Z" fill="rgba(255,255,255,0.08)"/>
</svg>
