<svg xmlns="http://www.w3.org/2000/svg" viewBox="0 0 64 64" width="64" height="64"><ellipse cx="32" cy="54" rx="16" ry="4" fill="rgba(0,0,0,0.10)"/><rect x="12" y="12" width="40" height="36" rx="3" fill="#33BB33" stroke="#228822" stroke-width="0.8"/><rect x="12" y="12" width="40" height="5" rx="2" fill="#44CC44" opacity="0.5"/><rect x="18" y="18" width="28" height="24" rx="2" fill="#228822" stroke="#33BB33" stroke-width="0.5"/><rect x="22" y="22" width="20" height="16" rx="1" fill="#114411"/><line x1="22" y1="26" x2="42" y2="26" stroke="#44CC44" stroke-width="0.5" opacity="0.4"/><line x1="22" y1="30" x2="42" y2="30" stroke="#44CC44" stroke-width="0.5" opacity="0.4"/><line x1="22" y1="34" x2="42" y2="34" stroke="#44CC44" stroke-width="0.5" opacity="0.4"/><circle cx="32" cy="30" r="3" fill="#55DD55" opacity="0.3"/><rect x="8" y="24" width="4" height="12" rx="1" fill="#228822"/><rect x="52" y="24" width="4" height="12" rx="1" fill="#228822"/><rect x="24" y="8" width="16" height="4" rx="1" fill="#228822"/><rect x="24" y="48" width="16" height="4" rx="1" fill="#228822"/><ellipse cx="16" cy="16" rx="2" ry="3" fill="rgba(255,255,255,0.04)"/></svg>