<svg xmlns="http://www.w3.org/2000/svg" viewBox="0 0 64 64" width="64" height="64">
  <!-- sand base -->
  <ellipse cx="32" cy="34" rx="24" ry="22" fill="#DDCC88" stroke="#AA9966" stroke-width="0.8"/>
  <!-- grain texture -->
  <circle cx="16" cy="20" r="1.5" fill="#C8B87A" opacity="0.7"/>
  <circle cx="24" cy="16" r="1" fill="#C8B87A" opacity="0.6"/>
  <circle cx="34" cy="14" r="1.5" fill="#C8B87A" opacity="0.7"/>
  <circle cx="44" cy="18" r="1" fill="#C8B87A" opacity="0.6"/>
  <circle cx="48" cy="26" r="1.5" fill="#C8B87A" opacity="0.7"/>
  <circle cx="18" cy="30" r="1" fill="#C8B87A" opacity="0.6"/>
  <circle cx="50" cy="36" r="1.5" fill="#C8B87A" opacity="0.7"/>
  <circle cx="42" cy="46" r="1" fill="#C8B87A" opacity="0.6"/>
  <circle cx="34" cy="50" r="1.5" fill="#C8B87A" opacity="0.7"/>
  <circle cx="22" cy="48" r="1" fill="#C8B87A" opacity="0.6"/>
  <circle cx="14" cy="38" r="1.5" fill="#C8B87A" opacity="0.7"/>
  <circle cx="20" cy="40" r="1" fill="#C8B87A" opacity="0.5"/>
  <circle cx="38" cy="24" r="1" fill="#C8B87A" opacity="0.5"/>
  <circle cx="28" cy="28" r="1.5" fill="#C8B87A" opacity="0.6"/>
  <circle cx="30" cy="40" r="1" fill="#C8B87A" opacity="0.5"/>
  <circle cx="40" cy="34" r="1" fill="#C8B87A" opacity="0.5"/>
  <!-- darker grains -->
  <circle cx="22" cy="24" r="1" fill="#998866" opacity="0.4"/>
  <circle cx="36" cy="30" r="1" fill="#998866" opacity="0.4"/>
  <circle cx="28" cy="44" r="1" fill="#998866" opacity="0.4"/>
  <circle cx="44" cy="40" r="1" fill="#998866" opacity="0.3"/>
  <circle cx="16" cy="34" r="1" fill="#998866" opacity="0.3"/>
</svg>
