<svg xmlns="http://www.w3.org/2000/svg" viewBox="0 0 64 64" width="64" height="64">
  <title>Stone Brick</title>
  <desc>Brique de Pierre — Ressource transformée Phase 0. Vue 3/4 : assemblage de briques grises (#887766) rectangulaires avec jointures. Géométrie stricte, aspect taillé. 64×64.</desc>
  <ellipse cx="32" cy="54" rx="20" ry="4" fill="rgba(0,0,0,0.10)"/>
  <rect x="4" y="6" width="28" height="14" rx="1" fill="#887766" stroke="#665544" stroke-width="0.8"/>
  <rect x="34" y="6" width="26" height="14" rx="1" fill="#887766" stroke="#665544" stroke-width="0.8"/>
  <rect x="2" y="22" width="20" height="14" rx="1" fill="#887766" stroke="#665544" stroke-width="0.8"/>
  <rect x="24" y="22" width="20" height="14" rx="1" fill="#887766" stroke="#665544" stroke-width="0.8"/>
  <rect x="46" y="22" width="16" height="14" rx="1" fill="#887766" stroke="#665544" stroke-width="0.8"/>
  <rect x="4" y="38" width="28" height="14" rx="1" fill="#887766" stroke="#665544" stroke-width="0.8"/>
  <rect x="34" y="38" width="26" height="14" rx="1" fill="#887766" stroke="#665544" stroke-width="0.8"/>
  <rect x="4" y="6" width="28" height="14" rx="1" fill="none" stroke="#997766" stroke-width="0.3" opacity="0.4"/>
  <rect x="34" y="6" width="26" height="14" rx="1" fill="none" stroke="#997766" stroke-width="0.3" opacity="0.4"/>
  <rect x="2" y="22" width="20" height="14" rx="1" fill="none" stroke="#997766" stroke-width="0.3" opacity="0.4"/>
  <rect x="24" y="22" width="20" height="14" rx="1" fill="none" stroke="#997766" stroke-width="0.3" opacity="0.4"/>
  <line x1="8" y1="10" x2="26" y2="10" stroke="#776655" stroke-width="0.3" opacity="0.3"/>
  <line x1="38" y1="10" x2="54" y2="10" stroke="#776655" stroke-width="0.3" opacity="0.3"/>
  <line x1="28" y1="26" x2="40" y2="26" stroke="#776655" stroke-width="0.3" opacity="0.3"/>
  <line x1="10" y1="42" x2="26" y2="42" stroke="#776655" stroke-width="0.3" opacity="0.3"/>
</svg>
