<svg xmlns="http://www.w3.org/2000/svg" viewBox="0 0 64 64" width="64" height="64">
  <!-- shadow -->
  <ellipse cx="34" cy="50" rx="17" ry="6" fill="rgba(0,0,0,0.12)"/>
  <!-- main rock body - irregular polygon -->
  <path d="M18 18 L26 10 L40 12 L50 20 L52 32 L48 44 L36 50 L22 48 L12 38 L14 26Z" fill="#888888" stroke="#555" stroke-width="1"/>
  <!-- facets -->
  <path d="M18 18 L26 10 L30 24 L20 28Z" fill="#777" opacity="0.6"/>
  <path d="M40 12 L50 20 L42 30 L34 22Z" fill="#999" opacity="0.5"/>
  <path d="M36 50 L42 40 L48 44Z" fill="#6A6A6A" opacity="0.5"/>
  <path d="M12 38 L22 30 L26 42 L18 48Z" fill="#7A7A7A" opacity="0.5"/>
  <!-- cracks -->
  <line x1="24" y1="16" x2="28" y2="30" stroke="#666" stroke-width="0.6" opacity="0.7"/>
  <line x1="40" y1="18" x2="36" y2="34" stroke="#666" stroke-width="0.5" opacity="0.6"/>
  <line x1="28" y1="30" x2="38" y2="36" stroke="#666" stroke-width="0.4" opacity="0.5"/>
  <!-- specular highlight -->
  <ellipse cx="32" cy="18" rx="6" ry="3" fill="rgba(255,255,255,0.08)"/>
</svg>
