<svg xmlns="http://www.w3.org/2000/svg" viewBox="0 0 128 128" width="128" height="128">
  <title>Water Pump</title>
  <desc>Pompe à Eau — Bâtiment extracteur Phase 2. Vue 3/4 open-frame : station de pompage bleue (#3399DD) avec réservoir horizontal, cylindre vertical, piston, manomètre et tuyaux d'entrée/sortie. Zone supérieure (75%) : le mécanisme de pompage visible. Façade inférieure (25%) : embase. Ports de connexion aux bords de tuile. 128×128.</desc>
  <ellipse cx="64" cy="118" rx="50" ry="8" fill="rgba(0,0,0,0.10)"/>
  <rect x="20" y="60" width="88" height="10" rx="2" fill="#4477AA" stroke="#224466" stroke-width="1"/>
  <rect x="28" y="24" width="72" height="36" rx="6" fill="#3399DD" stroke="#1A5588" stroke-width="1"/>
  <rect x="44" y="16" width="40" height="14" rx="4" fill="#44AADD" stroke="#1A5588" stroke-width="0.8"/>
  <circle cx="64" cy="14" r="10" fill="#44BBDD" stroke="#1A5588" stroke-width="0.8"/>
  <circle cx="64" cy="14" r="6" fill="#55CCEE" stroke="#1A5588" stroke-width="0.5"/>
  <rect x="100" y="40" width="12" height="10" rx="3" fill="#557788" stroke="#334455" stroke-width="0.6"/>
  <rect x="16" y="40" width="12" height="10" rx="3" fill="#557788" stroke="#334455" stroke-width="0.6"/>
  <rect x="36" y="34" width="8" height="20" rx="2" fill="#111" opacity="0.3"/>
  <rect x="37" y="38" width="6" height="12" rx="1" fill="#66BBDD" opacity="0.5"/>
  <circle cx="32" cy="62" r="3" fill="#225577" stroke="#1A5588" stroke-width="0.5"/>
  <circle cx="96" cy="62" r="3" fill="#225577" stroke="#1A5588" stroke-width="0.5"/>
  <circle cx="64" cy="62" r="3" fill="#225577" stroke="#1A5588" stroke-width="0.5"/>
  <circle cx="80" cy="30" r="6" fill="#333" stroke="#1A5588" stroke-width="0.5"/>
  <circle cx="80" cy="30" r="4" fill="#444"/>
  <line x1="80" y1="30" x2="82" y2="28" stroke="#88FF44" stroke-width="1"/>
  <rect x="30" y="26" width="16" height="30" rx="3" fill="rgba(255,255,255,0.05)"/>
</svg>
