<svg xmlns="http://www.w3.org/2000/svg" viewBox="0 0 128 64" width="128" height="64">
  <g id="base">
    <rect x="2" y="2" width="124" height="60" rx="3" fill="url(#bodyGrad)" stroke="#3e3e3e" stroke-width="1"/>
    <rect x="2" y="2" width="124" height="2" fill="none" stroke="#6a6a6a" stroke-width="0.5"/>
    <line x1="10" y1="32" x2="118" y2="32" stroke="#5a5a5a" stroke-width="3"/>
    <rect x="50" y="12" width="28" height="40" rx="2" fill="#4a4a4a" stroke="#3e3e3e" stroke-width="1"/>
    <line x1="64" y1="12" x2="64" y2="52" stroke="#5a5a5a" stroke-width="2"/>
    <line x1="36" y1="32" x2="50" y2="32" stroke="#5a5a5a" stroke-width="2"/>
    <line x1="78" y1="32" x2="92" y2="32" stroke="#5a5a5a" stroke-width="2"/>
    <rect x="0" y="24" width="4" height="16" rx="1" fill="#ffcc00" stroke="#cc9900" stroke-width="0.5"/>
    <line x1="4" y1="24" x2="4" y2="40" stroke="#ffe066" stroke-width="0.5"/>
    <rect x="124" y="24" width="4" height="16" rx="1" fill="#ffcc00" stroke="#cc9900" stroke-width="0.5"/>
    <line x1="124" y1="24" x2="124" y2="40" stroke="#ffe066" stroke-width="0.5"/>
    <circle cx="10" cy="10" r="2" fill="#6e6e6e"/>
    <circle cx="118" cy="10" r="2" fill="#6e6e6e"/>
    <circle cx="10" cy="54" r="2" fill="#6e6e6e"/>
    <circle cx="118" cy="54" r="2" fill="#6e6e6e"/>
  </g>
  <g id="owner_color">
    <rect x="10" y="48" width="14" height="3" fill="white"/>
  </g>
  <g id="level_color">
    <rect x="108" y="6" width="14" height="6" rx="1" fill="white"/>
  </g>
</svg>
