<svg xmlns="http://www.w3.org/2000/svg" viewBox="0 0 64 64" width="64" height="64">
  <g id="base">
    <rect x="2" y="2" width="60" height="60" rx="3" fill="url(#bodyGrad)" stroke="#3e3e3e" stroke-width="1"/>
    <rect x="2" y="2" width="60" height="2" fill="none" stroke="#6a6a6a" stroke-width="0.5"/>
    <rect x="12" y="12" width="40" height="40" rx="2" fill="#4a4a4a" stroke="#3e3e3e" stroke-width="1"/>
    <rect x="16" y="16" width="32" height="32" rx="1" fill="#cc5500"/>
    <rect x="20" y="20" width="24" height="24" rx="1" fill="#ee7700"/>
    <rect x="24" y="24" width="16" height="16" rx="1" fill="#ffaa33"/>
    <rect x="0" y="24" width="4" height="16" rx="1" fill="#ffcc00" stroke="#cc9900" stroke-width="0.5"/>
    <line x1="4" y1="24" x2="4" y2="40" stroke="#ffe066" stroke-width="0.5"/>
    <rect x="60" y="24" width="4" height="16" rx="1" fill="#ffcc00" stroke="#cc9900" stroke-width="0.5"/>
    <line x1="60" y1="24" x2="60" y2="40" stroke="#ffe066" stroke-width="0.5"/>
    <circle cx="8" cy="8" r="1.5" fill="#6e6e6e"/>
    <circle cx="56" cy="8" r="1.5" fill="#6e6e6e"/>
    <circle cx="8" cy="56" r="1.5" fill="#6e6e6e"/>
    <circle cx="56" cy="56" r="1.5" fill="#6e6e6e"/>
  </g>
  <g id="owner_color">
    <rect x="8" y="50" width="12" height="3" fill="white"/>
  </g>
  <g id="level_color">
    <rect x="48" y="6" width="10" height="6" rx="1" fill="white"/>
  </g>
</svg>
