<svg xmlns="http://www.w3.org/2000/svg" viewBox="0 0 64 64" width="64" height="64">
  <g id="base">
    <rect x="2" y="2" width="60" height="60" rx="3" fill="url(#bodyGrad)" stroke="#3e3e3e" stroke-width="1"/>
    <rect x="2" y="2" width="60" height="2" fill="none" stroke="#6a6a6a" stroke-width="0.5"/>
    <circle cx="32" cy="32" r="18" fill="#4a4a4a" stroke="#3e3e3e" stroke-width="1"/>
    <circle cx="32" cy="32" r="14" fill="#505050"/>
    <line x1="32" y1="18" x2="32" y2="46" stroke="#5a5a5a" stroke-width="2"/>
    <line x1="18" y1="32" x2="46" y2="32" stroke="#5a5a5a" stroke-width="2"/>
    <line x1="22" y1="22" x2="42" y2="42" stroke="#5a5a5a" stroke-width="1.5"/>
    <line x1="42" y1="22" x2="22" y2="42" stroke="#5a5a5a" stroke-width="1.5"/>
    <rect x="0" y="24" width="4" height="16" rx="1" fill="#ffcc00" stroke="#cc9900" stroke-width="0.5"/>
    <line x1="4" y1="24" x2="4" y2="40" stroke="#ffe066" stroke-width="0.5"/>
    <rect x="60" y="24" width="4" height="16" rx="1" fill="#ffcc00" stroke="#cc9900" stroke-width="0.5"/>
    <line x1="60" y1="24" x2="60" y2="40" stroke="#ffe066" stroke-width="0.5"/>
    <circle cx="8" cy="8" r="1.5" fill="#6e6e6e"/>
    <circle cx="56" cy="8" r="1.5" fill="#6e6e6e"/>
    <circle cx="8" cy="56" r="1.5" fill="#6e6e6e"/>
    <circle cx="56" cy="56" r="1.5" fill="#6e6e6e"/>
  </g>
  <g id="owner_color">
    <rect x="8" y="50" width="12" height="3" fill="white"/>
  </g>
  <g id="level_color">
    <rect x="48" y="6" width="10" height="6" rx="1" fill="white"/>
  </g>
</svg>
