<svg xmlns="http://www.w3.org/2000/svg" viewBox="0 0 128 128" width="128" height="128">
  <g id="base">
    <rect x="4" y="4" width="120" height="120" rx="4" fill="url(#bodyGrad)" stroke="#3e3e3e" stroke-width="1"/>
    <rect x="4" y="4" width="120" height="2" fill="none" stroke="#6a6a6a" stroke-width="0.5"/>
    <rect x="40" y="40" width="48" height="48" rx="2" fill="#3a3a3a" stroke="#4a7a4a" stroke-width="2"/>
    <rect x="52" y="52" width="24" height="24" rx="1" fill="#4a4a4a"/>
    <line x1="64" y1="4" x2="64" y2="40" stroke="#4a7a4a" stroke-width="1.5"/>
    <line x1="64" y1="88" x2="64" y2="124" stroke="#4a7a4a" stroke-width="1.5"/>
    <line x1="4" y1="64" x2="40" y2="64" stroke="#4a7a4a" stroke-width="1.5"/>
    <line x1="88" y1="64" x2="124" y2="64" stroke="#4a7a4a" stroke-width="1.5"/>
    <line x1="20" y1="20" x2="40" y2="40" stroke="#4a7a4a" stroke-width="1"/>
    <line x1="108" y1="20" x2="88" y2="40" stroke="#4a7a4a" stroke-width="1"/>
    <line x1="20" y1="108" x2="40" y2="88" stroke="#4a7a4a" stroke-width="1"/>
    <line x1="108" y1="108" x2="88" y2="88" stroke="#4a7a4a" stroke-width="1"/>
    <circle cx="20" cy="20" r="3" fill="#4a7a4a"/>
    <circle cx="108" cy="20" r="3" fill="#4a7a4a"/>
    <circle cx="20" cy="108" r="3" fill="#4a7a4a"/>
    <circle cx="108" cy="108" r="3" fill="#4a7a4a"/>
    <rect x="0" y="58" width="4" height="12" rx="1" fill="#ffcc00" stroke="#cc9900" stroke-width="0.5"/>
    <rect x="124" y="58" width="4" height="12" rx="1" fill="#ffcc00" stroke="#cc9900" stroke-width="0.5"/>
    <circle cx="10" cy="10" r="2" fill="#6e6e6e"/>
    <circle cx="118" cy="10" r="2" fill="#6e6e6e"/>
    <circle cx="10" cy="118" r="2" fill="#6e6e6e"/>
    <circle cx="118" cy="118" r="2" fill="#6e6e6e"/>
  </g>
  <g id="owner_color">
    <rect x="10" y="120" width="14" height="3" fill="white"/>
  </g>
  <g id="level_color">
    <rect x="108" y="6" width="14" height="6" rx="1" fill="white"/>
  </g>
</svg>
