<svg xmlns="http://www.w3.org/2000/svg" viewBox="0 0 128 128" width="128" height="128">
  <g id="base">
    <rect x="4" y="4" width="120" height="120" rx="4" fill="url(#bodyGrad)" stroke="#3e3e3e" stroke-width="1"/>
    <rect x="4" y="4" width="120" height="2" fill="none" stroke="#6a6a6a" stroke-width="0.5"/>
    <circle cx="64" cy="64" r="40" fill="none" stroke="#5a5a6a" stroke-width="2"/>
    <circle cx="64" cy="64" r="30" fill="none" stroke="#5a5a6a" stroke-width="1.5"/>
    <circle cx="64" cy="64" r="20" fill="none" stroke="#5a5a6a" stroke-width="1"/>
    <polygon points="64,24 78,52 100,52 82,72 90,100 64,84 38,100 46,72 28,52 50,52" fill="none" stroke="#7a5a9a" stroke-width="2"/>
    <circle cx="64" cy="64" r="6" fill="#6a5a8a"/>
    <circle cx="20" cy="20" r="3" fill="#7a5a9a"/>
    <circle cx="108" cy="20" r="3" fill="#7a5a9a"/>
    <circle cx="20" cy="108" r="3" fill="#7a5a9a"/>
    <circle cx="108" cy="108" r="3" fill="#7a5a9a"/>
    <rect x="0" y="58" width="4" height="12" rx="1" fill="#ffcc00" stroke="#cc9900" stroke-width="0.5"/>
    <rect x="124" y="58" width="4" height="12" rx="1" fill="#ffcc00" stroke="#cc9900" stroke-width="0.5"/>
    <rect x="58" y="0" width="12" height="4" rx="1" fill="#ffcc00" stroke="#cc9900" stroke-width="0.5"/>
    <rect x="58" y="124" width="12" height="4" rx="1" fill="#ffcc00" stroke="#cc9900" stroke-width="0.5"/>
  </g>
  <g id="owner_color">
    <rect x="10" y="120" width="14" height="3" fill="white"/>
  </g>
  <g id="level_color">
    <rect x="108" y="6" width="14" height="6" rx="1" fill="white"/>
  </g>
</svg>
