<svg xmlns="http://www.w3.org/2000/svg" viewBox="0 0 128 128" width="128" height="128">
  <g id="base">
    <rect x="4" y="4" width="120" height="120" rx="4" fill="url(#bodyGrad)" stroke="#3e3e3e" stroke-width="1"/>
    <rect x="4" y="4" width="120" height="2" fill="none" stroke="#6a6a6a" stroke-width="0.5"/>
    <rect x="24" y="24" width="80" height="80" rx="3" fill="#4a4a4a" stroke="#3e3e3e" stroke-width="1"/>
    <rect x="44" y="34" width="40" height="60" rx="2" fill="#505050"/>
    <circle cx="24" cy="24" r="6" fill="#5a5a5a"/>
    <circle cx="104" cy="24" r="6" fill="#5a5a5a"/>
    <circle cx="24" cy="104" r="6" fill="#5a5a5a"/>
    <circle cx="104" cy="104" r="6" fill="#5a5a5a"/>
    <line x1="24" y1="30" x2="24" y2="18" stroke="#5a5a5a" stroke-width="3"/>
    <line x1="104" y1="30" x2="104" y2="18" stroke="#5a5a5a" stroke-width="3"/>
    <line x1="24" y1="98" x2="24" y2="110" stroke="#5a5a5a" stroke-width="3"/>
    <line x1="104" y1="98" x2="104" y2="110" stroke="#5a5a5a" stroke-width="3"/>
    <rect x="0" y="58" width="4" height="12" rx="1" fill="#ffcc00" stroke="#cc9900" stroke-width="0.5"/>
    <rect x="124" y="58" width="4" height="12" rx="1" fill="#ffcc00" stroke="#cc9900" stroke-width="0.5"/>
    <circle cx="10" cy="10" r="2" fill="#6e6e6e"/>
    <circle cx="118" cy="10" r="2" fill="#6e6e6e"/>
    <circle cx="10" cy="118" r="2" fill="#6e6e6e"/>
    <circle cx="118" cy="118" r="2" fill="#6e6e6e"/>
  </g>
  <g id="owner_color">
    <rect x="10" y="120" width="14" height="3" fill="white"/>
  </g>
  <g id="level_color">
    <rect x="108" y="6" width="14" height="6" rx="1" fill="white"/>
  </g>
</svg>
