<svg xmlns="http://www.w3.org/2000/svg" viewBox="0 0 64 64" width="64" height="64">
  <g id="base">
    <rect x="2" y="2" width="60" height="60" rx="3" fill="url(#bodyGrad)" stroke="#3e3e3e" stroke-width="1"/>
    <rect x="2" y="2" width="60" height="2" fill="none" stroke="#6a6a6a" stroke-width="0.5"/>
    <rect x="8" y="16" width="48" height="32" rx="2" fill="#505050"/>
    <line x1="8" y1="24" x2="56" y2="24" stroke="#6a6a6a" stroke-width="1.5"/>
    <line x1="8" y1="40" x2="56" y2="40" stroke="#6a6a6a" stroke-width="1.5"/>
    <polygon points="42,32 50,26 50,38" fill="#aaa" opacity="0.6"/>
    <rect x="0" y="24" width="4" height="16" rx="1" fill="#ffcc00" stroke="#cc9900" stroke-width="0.5"/>
    <line x1="4" y1="24" x2="4" y2="40" stroke="#ffe066" stroke-width="0.5"/>
    <rect x="60" y="24" width="4" height="16" rx="1" fill="#ffcc00" stroke="#cc9900" stroke-width="0.5"/>
    <line x1="60" y1="24" x2="60" y2="40" stroke="#ffe066" stroke-width="0.5"/>
    <circle cx="8" cy="8" r="1.5" fill="#6e6e6e"/>
    <circle cx="56" cy="8" r="1.5" fill="#6e6e6e"/>
    <circle cx="8" cy="56" r="1.5" fill="#6e6e6e"/>
    <circle cx="56" cy="56" r="1.5" fill="#6e6e6e"/>
  </g>
</svg>
