<svg xmlns="http://www.w3.org/2000/svg" viewBox="0 0 192 192" width="192" height="192">
  <defs>
    <linearGradient id="bodyGrad" x1="0.2" y1="0" x2="0.8" y2="1">
      <stop offset="0%" stop-color="#6a6a6a"/>
      <stop offset="50%" stop-color="#4e4e4e"/>
      <stop offset="100%" stop-color="#5a5a5a"/>
    </linearGradient>
    <linearGradient id="mastGrad" x1="0" y1="0" x2="1" y2="0">
      <stop offset="0%" stop-color="#525252"/>
      <stop offset="50%" stop-color="#626262"/>
      <stop offset="100%" stop-color="#4e4e4e"/>
    </linearGradient>
    <linearGradient id="pipeGrad" x1="0" y1="0" x2="1" y2="0">
      <stop offset="0%" stop-color="#5a5a5a"/>
      <stop offset="50%" stop-color="#6e6e6e"/>
      <stop offset="100%" stop-color="#4a4a4a"/>
    </linearGradient>
  </defs>

  <g id="base">
    <!-- ======================== TOP ROW (y=4..56) ======================== -->

    <!-- Left column -->
    <rect x="14" y="4" width="44" height="52" rx="2" fill="url(#bodyGrad)" stroke="#3e3e3e" stroke-width="1"/>
    <line x1="16" y1="6" x2="16" y2="54" stroke="#585858" stroke-width="1.5"/>
    <line x1="56" y1="6" x2="56" y2="54" stroke="#585858" stroke-width="1.5"/>
    <line x1="20" y1="12" x2="52" y2="20" stroke="#5c5c5c" stroke-width="1"/>
    <line x1="20" y1="20" x2="52" y2="12" stroke="#5c5c5c" stroke-width="1"/>
    <line x1="20" y1="28" x2="52" y2="36" stroke="#5c5c5c" stroke-width="1"/>
    <line x1="20" y1="36" x2="52" y2="28" stroke="#5c5c5c" stroke-width="1"/>
    <line x1="20" y1="44" x2="52" y2="52" stroke="#5c5c5c" stroke-width="1"/>
    <line x1="20" y1="52" x2="52" y2="44" stroke="#5c5c5c" stroke-width="1"/>
    <line x1="36" y1="6" x2="36" y2="54" stroke="#6e6e6e" stroke-width="2"/>
    <circle cx="36" cy="10" r="2" fill="#6e6e6e"/>
    <circle cx="36" cy="30" r="1.5" fill="#707070"/>
    <circle cx="36" cy="50" r="2" fill="#6e6e6e"/>
    <rect x="30" y="0" width="12" height="6" rx="2" fill="#555" stroke="#3e3e3e" stroke-width="1"/>
    <polygon points="33,0 39,0 36,-4" fill="#777" stroke="#555" stroke-width="0.5"/>

    <!-- Center column -->
    <rect x="74" y="4" width="44" height="52" rx="2" fill="url(#bodyGrad)" stroke="#3e3e3e" stroke-width="1"/>
    <line x1="76" y1="6" x2="76" y2="54" stroke="#585858" stroke-width="1.5"/>
    <line x1="116" y1="6" x2="116" y2="54" stroke="#585858" stroke-width="1.5"/>
    <line x1="80" y1="12" x2="112" y2="20" stroke="#5c5c5c" stroke-width="1"/>
    <line x1="80" y1="20" x2="112" y2="12" stroke="#5c5c5c" stroke-width="1"/>
    <line x1="80" y1="28" x2="112" y2="36" stroke="#5c5c5c" stroke-width="1"/>
    <line x1="80" y1="36" x2="112" y2="28" stroke="#5c5c5c" stroke-width="1"/>
    <line x1="80" y1="44" x2="112" y2="52" stroke="#5c5c5c" stroke-width="1"/>
    <line x1="80" y1="52" x2="112" y2="44" stroke="#5c5c5c" stroke-width="1"/>
    <line x1="96" y1="6" x2="96" y2="54" stroke="#6e6e6e" stroke-width="2"/>
    <circle cx="96" cy="10" r="2" fill="#6e6e6e"/>
    <circle cx="96" cy="30" r="1.5" fill="#707070"/>
    <circle cx="96" cy="50" r="2" fill="#6e6e6e"/>
    <rect x="90" y="0" width="12" height="6" rx="2" fill="#555" stroke="#3e3e3e" stroke-width="1"/>
    <polygon points="93,0 99,0 96,-4" fill="#777" stroke="#555" stroke-width="0.5"/>

    <!-- Right column -->
    <rect x="134" y="4" width="44" height="52" rx="2" fill="url(#bodyGrad)" stroke="#3e3e3e" stroke-width="1"/>
    <line x1="136" y1="6" x2="136" y2="54" stroke="#585858" stroke-width="1.5"/>
    <line x1="176" y1="6" x2="176" y2="54" stroke="#585858" stroke-width="1.5"/>
    <line x1="140" y1="12" x2="172" y2="20" stroke="#5c5c5c" stroke-width="1"/>
    <line x1="140" y1="20" x2="172" y2="12" stroke="#5c5c5c" stroke-width="1"/>
    <line x1="140" y1="28" x2="172" y2="36" stroke="#5c5c5c" stroke-width="1"/>
    <line x1="140" y1="36" x2="172" y2="28" stroke="#5c5c5c" stroke-width="1"/>
    <line x1="140" y1="44" x2="172" y2="52" stroke="#5c5c5c" stroke-width="1"/>
    <line x1="140" y1="52" x2="172" y2="44" stroke="#5c5c5c" stroke-width="1"/>
    <line x1="156" y1="6" x2="156" y2="54" stroke="#6e6e6e" stroke-width="2"/>
    <circle cx="156" cy="10" r="2" fill="#6e6e6e"/>
    <circle cx="156" cy="30" r="1.5" fill="#707070"/>
    <circle cx="156" cy="50" r="2" fill="#6e6e6e"/>
    <rect x="150" y="0" width="12" height="6" rx="2" fill="#555" stroke="#3e3e3e" stroke-width="1"/>
    <polygon points="153,0 159,0 156,-4" fill="#777" stroke="#555" stroke-width="0.5"/>

    <!-- ======================== DECK 1 (y=54..62) ======================== -->

    <rect x="4" y="54" width="184" height="8" rx="1" fill="#4a4a4a" stroke="#3e3e3e" stroke-width="1"/>
    <line x1="4" y1="54" x2="188" y2="54" stroke="#5a5a5a" stroke-width="0.5"/>
    <rect x="6" y="56" width="4" height="4" fill="#5e5e5e"/>
    <rect x="182" y="56" width="4" height="4" fill="#5e5e5e"/>
    <rect x="60" y="56" width="4" height="4" fill="#5e5e5e"/>
    <rect x="128" y="56" width="4" height="4" fill="#5e5e5e"/>

    <!-- Conveyor belt on deck 1 -->
    <rect x="8" y="56" width="176" height="4" rx="1" fill="#525252"/>
    <line x1="12" y1="58" x2="180" y2="58" stroke="#585858" stroke-width="0.5"/>

    <!-- ======================== MIDDLE ROW (y=62..124) ======================== -->

    <!-- Processing hall — large central structure -->
    <rect x="4" y="62" width="184" height="62" rx="3" fill="url(#bodyGrad)" stroke="#3e3e3e" stroke-width="1"/>
    <rect x="4" y="62" width="184" height="2" fill="none" stroke="#6a6a6a" stroke-width="0.5"/>

    <!-- Vertical support columns in processing hall -->
    <rect x="6" y="64" width="6" height="58" rx="1" fill="url(#mastGrad)" stroke="#3e3e3e" stroke-width="0.5"/>
    <rect x="60" y="64" width="6" height="58" rx="1" fill="url(#mastGrad)" stroke="#3e3e3e" stroke-width="0.5"/>
    <rect x="126" y="64" width="6" height="58" rx="1" fill="url(#mastGrad)" stroke="#3e3e3e" stroke-width="0.5"/>
    <rect x="180" y="64" width="6" height="58" rx="1" fill="url(#mastGrad)" stroke="#3e3e3e" stroke-width="0.5"/>

    <!-- Processing units between columns -->
    <rect x="14" y="68" width="44" height="52" rx="2" fill="#4c4c4c" stroke="#444" stroke-width="1"/>
    <circle cx="36" cy="80" r="6" fill="#555" stroke="#4a4a4a" stroke-width="0.5"/>
    <circle cx="36" cy="80" r="3" fill="#666"/>
    <line x1="36" y1="86" x2="36" y2="118" stroke="#6e6e6e" stroke-width="2"/>
    <circle cx="36" cy="100" r="1.5" fill="#707070"/>
    <circle cx="36" cy="114" r="1.5" fill="#707070"/>

    <rect x="68" y="68" width="56" height="52" rx="2" fill="#4c4c4c" stroke="#444" stroke-width="1"/>
    <rect x="78" y="72" width="36" height="14" rx="1" fill="#484848" stroke="#4a4a4a" stroke-width="0.5"/>
    <rect x="78" y="90" width="36" height="14" rx="1" fill="#484848" stroke="#4a4a4a" stroke-width="0.5"/>
    <circle cx="84" cy="79" r="1.5" fill="#7a7a7a"/>
    <circle cx="96" cy="79" r="1.5" fill="#7a7a7a"/>
    <circle cx="108" cy="79" r="1.5" fill="#7a7a7a"/>
    <circle cx="84" cy="97" r="1.5" fill="#7a7a7a"/>
    <circle cx="96" cy="97" r="1.5" fill="#7a7a7a"/>
    <circle cx="108" cy="97" r="1.5" fill="#7a7a7a"/>

    <rect x="134" y="68" width="44" height="52" rx="2" fill="#4c4c4c" stroke="#444" stroke-width="1"/>
    <circle cx="156" cy="80" r="6" fill="#555" stroke="#4a4a4a" stroke-width="0.5"/>
    <circle cx="156" cy="80" r="3" fill="#666"/>
    <line x1="156" y1="86" x2="156" y2="118" stroke="#6e6e6e" stroke-width="2"/>
    <circle cx="156" cy="100" r="1.5" fill="#707070"/>
    <circle cx="156" cy="114" r="1.5" fill="#707070"/>

    <!-- Cross pipes between processing units -->
    <line x1="58" y1="76" x2="68" y2="76" stroke="url(#pipeGrad)" stroke-width="3"/>
    <line x1="58" y1="112" x2="68" y2="112" stroke="url(#pipeGrad)" stroke-width="3"/>
    <line x1="124" y1="76" x2="134" y2="76" stroke="url(#pipeGrad)" stroke-width="3"/>
    <line x1="124" y1="112" x2="134" y2="112" stroke="url(#pipeGrad)" stroke-width="3"/>

    <!-- Middle output port (right edge, middle tile) -->
    <rect x="188" y="84" width="4" height="24" rx="1" fill="#2e2e2e"/>
    <rect x="189" y="86" width="3" height="20" fill="#3a3a3a"/>
    <line x1="188" y1="84" x2="188" y2="108" stroke="#5a5a5a" stroke-width="0.5"/>
    <line x1="188" y1="84" x2="190" y2="84" stroke="#666" stroke-width="0.5"/>
    <rect x="178" y="88" width="10" height="16" fill="#4c4c4c" stroke="#444" stroke-width="0.5"/>

    <!-- ======================== DECK 2 (y=124..130) ======================== -->

    <rect x="4" y="124" width="184" height="6" rx="1" fill="#4a4a4a" stroke="#3e3e3e" stroke-width="1"/>
    <line x1="4" y1="124" x2="188" y2="124" stroke="#5a5a5a" stroke-width="0.5"/>
    <rect x="6" y="126" width="4" height="3" fill="#5e5e5e"/>
    <rect x="182" y="126" width="4" height="3" fill="#5e5e5e"/>
    <rect x="96" y="126" width="4" height="3" fill="#5e5e5e"/>

    <!-- ======================== BOTTOM ROW (y=130..186) ======================== -->

    <!-- Motor hall — wide machinery base -->
    <rect x="4" y="130" width="184" height="56" rx="3" fill="url(#bodyGrad)" stroke="#3e3e3e" stroke-width="1"/>
    <rect x="4" y="130" width="184" height="2" fill="none" stroke="#6a6a6a" stroke-width="0.5"/>

    <!-- Panel divisions -->
    <line x1="6" y1="146" x2="186" y2="146" stroke="#545454" stroke-width="1"/>
    <line x1="6" y1="168" x2="186" y2="168" stroke="#545454" stroke-width="1"/>

    <!-- Left motor block -->
    <rect x="8" y="150" width="52" height="34" rx="2" fill="url(#mastGrad)" stroke="#3e3e3e" stroke-width="1"/>
    <rect x="8" y="150" width="52" height="2" fill="none" stroke="#6a6a6a" stroke-width="0.5"/>
    <rect x="10" y="156" width="6" height="24" rx="0.5" fill="#585858"/>
    <rect x="18" y="156" width="6" height="24" rx="0.5" fill="#585858"/>
    <rect x="26" y="156" width="6" height="24" rx="0.5" fill="#585858"/>
    <rect x="34" y="156" width="6" height="24" rx="0.5" fill="#585858"/>
    <rect x="42" y="156" width="6" height="24" rx="0.5" fill="#585858"/>
    <circle cx="52" cy="160" r="2" fill="#007700" stroke="#005500" stroke-width="0.5"/>
    <circle cx="52" cy="174" r="2" fill="#007700" stroke="#005500" stroke-width="0.5"/>

    <!-- Center motor block (larger) -->
    <rect x="64" y="150" width="60" height="34" rx="2" fill="url(#mastGrad)" stroke="#3e3e3e" stroke-width="1"/>
    <rect x="64" y="150" width="60" height="2" fill="none" stroke="#6a6a6a" stroke-width="0.5"/>
    <rect x="66" y="156" width="8" height="24" rx="0.5" fill="#585858"/>
    <rect x="76" y="156" width="8" height="24" rx="0.5" fill="#585858"/>
    <rect x="86" y="156" width="8" height="24" rx="0.5" fill="#585858"/>
    <rect x="96" y="156" width="8" height="24" rx="0.5" fill="#585858"/>
    <rect x="106" y="156" width="8" height="24" rx="0.5" fill="#585858"/>
    <circle cx="118" cy="160" r="2" fill="#007700" stroke="#005500" stroke-width="0.5"/>
    <circle cx="118" cy="174" r="2" fill="#007700" stroke="#005500" stroke-width="0.5"/>

    <!-- Right motor block -->
    <rect x="128" y="150" width="52" height="34" rx="2" fill="url(#mastGrad)" stroke="#3e3e3e" stroke-width="1"/>
    <rect x="128" y="150" width="52" height="2" fill="none" stroke="#6a6a6a" stroke-width="0.5"/>
    <rect x="130" y="156" width="6" height="24" rx="0.5" fill="#585858"/>
    <rect x="138" y="156" width="6" height="24" rx="0.5" fill="#585858"/>
    <rect x="146" y="156" width="6" height="24" rx="0.5" fill="#585858"/>
    <rect x="154" y="156" width="6" height="24" rx="0.5" fill="#585858"/>
    <rect x="162" y="156" width="6" height="24" rx="0.5" fill="#585858"/>
    <circle cx="172" cy="160" r="2" fill="#007700" stroke="#005500" stroke-width="0.5"/>
    <circle cx="172" cy="174" r="2" fill="#007700" stroke="#005500" stroke-width="0.5"/>

    <!-- Bottom output port (right edge, bottom tile) -->
    <rect x="188" y="148" width="4" height="24" rx="1" fill="#2e2e2e"/>
    <rect x="189" y="150" width="3" height="20" fill="#3a3a3a"/>
    <line x1="188" y1="148" x2="188" y2="172" stroke="#5a5a5a" stroke-width="0.5"/>
    <line x1="188" y1="148" x2="190" y2="148" stroke="#666" stroke-width="0.5"/>
    <rect x="182" y="150" width="6" height="20" fill="#4c4c4c" stroke="#444" stroke-width="0.5"/>

    <!-- Foundation plate -->
    <rect x="4" y="186" width="184" height="6" rx="1" fill="#484848" stroke="#3e3e3e" stroke-width="1"/>
    <line x1="4" y1="186" x2="188" y2="186" stroke="#5a5a5a" stroke-width="0.5"/>
    <rect x="10" y="190" width="8" height="2" rx="0.5" fill="#555"/>
    <rect x="40" y="190" width="8" height="2" rx="0.5" fill="#555"/>
    <rect x="70" y="190" width="8" height="2" rx="0.5" fill="#555"/>
    <rect x="100" y="190" width="8" height="2" rx="0.5" fill="#555"/>
    <rect x="130" y="190" width="8" height="2" rx="0.5" fill="#555"/>
    <rect x="160" y="190" width="8" height="2" rx="0.5" fill="#555"/>

    <!-- External pipes connecting decks -->
    <line x1="10" y1="62" x2="10" y2="130" stroke="url(#pipeGrad)" stroke-width="3"/>
    <line x1="178" y1="62" x2="178" y2="130" stroke="url(#pipeGrad)" stroke-width="3"/>
  </g>

  <g id="owner_color">
    <rect x="18" y="8" width="4" height="44" fill="white"/>
    <rect x="78" y="8" width="4" height="44" fill="white"/>
    <rect x="138" y="8" width="4" height="44" fill="white"/>
    <rect x="6" y="132" width="180" height="4" fill="white"/>
  </g>

  <g id="level_color">
    <rect x="94" y="55" width="10" height="6" rx="1" fill="white"/>
    <rect x="94" y="125" width="10" height="4" rx="1" fill="white"/>
    <rect x="64" y="185" width="10" height="5" rx="1" fill="white"/>
  </g>
</svg>
