<svg xmlns="http://www.w3.org/2000/svg" viewBox="0 0 128 128" width="128" height="128">
  <g id="base">
    <rect x="4" y="4" width="120" height="120" rx="4" fill="url(#bodyGrad)" stroke="#3e3e3e" stroke-width="1"/>
    <rect x="4" y="4" width="120" height="2" fill="none" stroke="#6a6a6a" stroke-width="0.5"/>
    <circle cx="64" cy="64" r="32" fill="#4a3a3a" stroke="#3e3e3e" stroke-width="2"/>
    <circle cx="64" cy="64" r="24" fill="#bb4400" opacity="0.6"/>
    <circle cx="64" cy="64" r="16" fill="#dd6600" opacity="0.7"/>
    <circle cx="64" cy="64" r="8" fill="#ff8833"/>
    <rect x="10" y="10" width="16" height="16" rx="2" fill="#4e4e4e"/>
    <rect x="102" y="10" width="16" height="16" rx="2" fill="#4e4e4e"/>
    <rect x="10" y="102" width="16" height="16" rx="2" fill="#4e4e4e"/>
    <rect x="102" y="102" width="16" height="16" rx="2" fill="#4e4e4e"/>
    <line x1="18" y1="26" x2="18" y2="32" stroke="#6a6a6a" stroke-width="2"/>
    <line x1="110" y1="26" x2="110" y2="32" stroke="#6a6a6a" stroke-width="2"/>
    <line x1="18" y1="102" x2="18" y2="96" stroke="#6a6a6a" stroke-width="2"/>
    <line x1="110" y1="102" x2="110" y2="96" stroke="#6a6a6a" stroke-width="2"/>
    <rect x="0" y="58" width="4" height="12" rx="1" fill="#ffcc00" stroke="#cc9900" stroke-width="0.5"/>
    <rect x="124" y="58" width="4" height="12" rx="1" fill="#ffcc00" stroke="#cc9900" stroke-width="0.5"/>
    <circle cx="10" cy="10" r="2" fill="#6e6e6e"/>
    <circle cx="118" cy="10" r="2" fill="#6e6e6e"/>
    <circle cx="10" cy="118" r="2" fill="#6e6e6e"/>
    <circle cx="118" cy="118" r="2" fill="#6e6e6e"/>
  </g>
  <g id="owner_color">
    <rect x="10" y="120" width="14" height="3" fill="white"/>
  </g>
  <g id="level_color">
    <rect x="108" y="6" width="14" height="6" rx="1" fill="white"/>
  </g>
</svg>
